<svg id="svg" version="1.1" xmlns="http://www.w3.org/2000/svg" xmlns:xlink="http://www.w3.org/1999/xlink" width="400" height="101.64638511095204" viewBox="0, 0, 400,101.64638511095204"><g id="svgg"><path id="path0" d="M0.070 4.500 C 0.070 6.379,0.095 7.148,0.124 6.208 C 0.154 5.269,0.154 3.731,0.124 2.792 C 0.095 1.852,0.070 2.621,0.070 4.500 M399.902 4.250 C 399.902 5.900,399.927 6.552,399.958 5.700 C 399.988 4.847,399.988 3.497,399.957 2.700 C 399.927 1.902,399.902 2.600,399.902 4.250 M118.417 7.353 C 118.050 7.424,117.337 7.558,116.833 7.650 C 115.613 7.873,113.500 8.541,113.500 8.704 C 113.500 8.775,113.383 8.833,113.240 8.833 C 112.652 8.833,109.557 10.520,109.264 10.999 C 109.010 11.415,106.097 14.155,105.903 14.161 C 105.715 14.167,104.936 14.970,104.500 15.606 C 104.362 15.807,104.020 16.299,103.738 16.700 C 103.456 17.101,103.010 17.876,102.746 18.423 C 102.482 18.969,102.217 19.454,102.157 19.500 C 102.098 19.546,101.919 19.996,101.760 20.500 C 101.601 21.004,101.365 21.653,101.235 21.942 C 101.106 22.231,101.000 22.609,101.000 22.784 C 101.000 22.958,100.932 23.171,100.848 23.258 C 100.569 23.550,100.104 26.731,100.093 28.417 L 100.083 30.083 102.583 30.083 L 105.082 30.083 105.197 29.417 C 105.261 29.050,105.386 27.962,105.476 27.000 C 105.658 25.053,106.304 22.879,107.254 21.014 C 107.573 20.389,107.834 19.774,107.834 19.647 C 107.835 19.322,108.412 18.414,109.076 17.695 C 109.386 17.359,109.801 16.877,109.999 16.625 C 110.196 16.373,110.499 16.167,110.673 16.167 C 110.846 16.167,111.235 15.956,111.536 15.698 C 111.837 15.440,112.421 15.026,112.833 14.779 C 113.246 14.531,113.696 14.260,113.833 14.178 C 114.240 13.934,115.287 13.500,115.470 13.500 C 115.563 13.500,115.664 13.436,115.694 13.358 C 115.771 13.164,118.105 12.671,119.866 12.477 C 121.772 12.267,125.356 12.832,125.962 13.438 C 126.576 14.052,127.484 13.635,128.365 12.333 C 128.520 12.104,128.858 11.680,129.115 11.390 C 129.990 10.407,130.167 10.163,130.167 9.941 C 130.167 9.689,129.643 9.167,129.390 9.167 C 129.298 9.167,128.854 8.979,128.403 8.751 C 127.952 8.522,127.467 8.334,127.325 8.334 C 127.183 8.334,126.995 8.266,126.908 8.183 C 126.744 8.027,124.930 7.592,123.333 7.326 C 122.269 7.149,119.386 7.165,118.417 7.353 M155.474 7.248 C 155.430 7.293,155.098 7.362,154.738 7.402 C 153.434 7.546,150.167 8.476,150.167 8.704 C 150.167 8.775,150.061 8.833,149.932 8.833 C 149.556 8.833,148.000 9.696,148.000 9.904 C 148.000 10.009,147.794 10.218,147.542 10.370 C 147.091 10.640,146.764 10.880,145.833 11.627 C 145.575 11.835,145.113 12.110,144.807 12.240 C 144.299 12.454,142.336 14.371,141.624 15.348 C 141.462 15.569,141.144 15.986,140.915 16.274 C 140.687 16.562,140.500 16.881,140.500 16.982 C 140.500 17.084,140.425 17.167,140.333 17.167 C 140.242 17.167,140.167 17.253,140.167 17.359 C 140.167 17.465,139.991 17.784,139.776 18.068 C 139.561 18.351,139.348 18.696,139.303 18.833 C 139.244 19.012,139.146 18.940,138.961 18.583 C 138.665 18.014,137.523 16.292,137.358 16.167 C 137.297 16.121,136.941 15.670,136.565 15.164 C 135.642 13.923,133.846 12.164,133.517 12.179 C 133.167 12.196,130.500 15.554,130.500 15.977 C 130.500 16.157,130.706 16.479,130.958 16.694 C 131.211 16.908,131.754 17.496,132.167 18.000 C 132.579 18.504,132.973 18.942,133.042 18.972 C 133.110 19.003,133.167 19.116,133.167 19.224 C 133.167 19.332,133.338 19.607,133.547 19.835 C 133.757 20.063,134.060 20.531,134.222 20.875 C 134.383 21.219,134.587 21.500,134.674 21.500 C 134.762 21.500,134.833 21.578,134.833 21.674 C 134.833 21.769,135.057 22.327,135.331 22.912 C 135.605 23.498,135.984 24.370,136.173 24.850 C 137.185 27.416,137.734 28.000,139.139 28.000 C 140.465 28.000,141.279 27.292,141.924 25.580 C 142.165 24.940,142.543 24.021,142.764 23.537 C 142.986 23.053,143.167 22.601,143.167 22.532 C 143.167 22.463,143.617 21.711,144.167 20.861 C 144.717 20.010,145.167 19.289,145.167 19.258 C 145.167 19.164,146.026 18.185,146.958 17.214 C 147.440 16.713,147.833 16.210,147.833 16.096 C 147.833 15.563,150.453 13.808,151.365 13.730 C 151.704 13.701,152.260 13.528,152.602 13.345 C 152.943 13.162,153.566 12.962,153.986 12.902 C 154.406 12.841,154.825 12.735,154.917 12.666 C 155.220 12.437,157.563 12.326,158.750 12.484 C 160.216 12.679,162.556 13.182,162.667 13.325 C 162.712 13.385,163.125 13.571,163.583 13.740 C 164.042 13.908,164.535 14.148,164.680 14.273 C 164.825 14.398,165.031 14.500,165.138 14.500 C 165.245 14.500,165.333 14.570,165.333 14.655 C 165.333 14.741,165.488 14.860,165.678 14.920 C 165.867 14.980,166.271 15.249,166.576 15.516 C 167.224 16.085,167.547 16.024,167.794 15.284 C 167.892 14.990,168.241 14.046,168.570 13.186 C 169.413 10.976,169.383 10.863,167.719 10.000 C 167.278 9.771,166.879 9.539,166.833 9.485 C 166.787 9.430,166.375 9.249,165.917 9.081 C 165.458 8.913,165.008 8.726,164.917 8.666 C 164.825 8.605,164.262 8.397,163.667 8.204 C 162.672 7.882,162.159 7.760,160.000 7.334 C 159.208 7.178,155.613 7.110,155.474 7.248 M30.912 19.667 C 30.912 25.946,30.933 28.515,30.958 25.375 C 30.984 22.235,30.984 17.098,30.958 13.958 C 30.933 10.819,30.912 13.387,30.912 19.667 M3.079 21.667 C 3.079 28.954,3.100 31.935,3.125 28.292 C 3.150 24.648,3.150 18.685,3.125 15.042 C 3.100 11.398,3.079 14.379,3.079 21.667 M172.190 14.292 C 172.105 14.452,171.796 15.221,171.505 16.000 C 171.214 16.779,170.910 17.567,170.829 17.750 C 170.270 19.021,170.295 19.340,171.083 20.954 C 171.496 21.800,171.833 22.571,171.833 22.668 C 171.833 22.766,171.935 23.011,172.060 23.214 C 172.185 23.417,172.411 24.183,172.563 24.917 C 172.715 25.650,172.913 26.570,173.003 26.961 C 173.093 27.352,173.167 28.195,173.167 28.836 C 173.167 29.603,173.232 30.000,173.358 30.000 C 173.497 30.000,173.522 30.431,173.448 31.542 C 173.347 33.071,173.091 34.167,172.834 34.167 C 172.760 34.167,172.611 34.560,172.502 35.042 C 172.393 35.523,172.207 36.142,172.088 36.417 C 171.969 36.692,171.770 37.217,171.645 37.583 C 171.520 37.950,171.377 38.287,171.325 38.333 C 171.274 38.379,170.982 38.904,170.676 39.500 C 170.370 40.096,169.981 40.762,169.810 40.981 C 169.640 41.199,169.500 41.474,169.500 41.592 C 169.500 41.709,169.444 41.831,169.375 41.861 C 169.306 41.892,169.025 42.251,168.750 42.661 C 166.902 45.411,163.534 49.084,158.682 53.641 C 156.778 55.429,156.670 55.617,155.161 59.750 C 154.593 61.308,153.947 63.043,153.727 63.604 C 153.219 64.900,153.331 65.358,153.995 64.705 C 154.444 64.263,154.649 64.083,156.500 62.500 C 156.982 62.087,157.673 61.469,158.035 61.125 C 158.397 60.781,158.751 60.500,158.820 60.500 C 158.890 60.500,159.210 60.219,159.533 59.875 C 159.855 59.531,160.309 59.100,160.543 58.917 C 162.148 57.654,167.274 52.654,169.083 50.586 C 169.633 49.957,170.177 49.348,170.292 49.233 C 170.406 49.118,170.500 48.977,170.500 48.921 C 170.500 48.864,170.670 48.652,170.878 48.450 C 171.086 48.249,171.502 47.746,171.803 47.333 C 172.103 46.921,172.644 46.178,173.005 45.682 C 173.366 45.186,173.705 44.643,173.758 44.474 C 173.812 44.305,173.921 44.167,174.000 44.167 C 174.079 44.167,174.196 43.998,174.258 43.792 C 174.321 43.585,174.469 43.304,174.586 43.167 C 174.933 42.760,175.833 41.013,175.833 40.746 C 175.833 40.611,175.898 40.500,175.977 40.500 C 176.148 40.500,176.667 39.202,176.667 38.774 C 176.667 38.610,176.779 38.364,176.917 38.226 C 177.054 38.089,177.167 37.794,177.167 37.571 C 177.167 37.349,177.230 37.167,177.307 37.167 C 177.384 37.167,177.545 36.623,177.666 35.958 C 177.787 35.294,177.946 34.630,178.019 34.484 C 178.093 34.335,178.075 34.142,177.978 34.045 C 177.859 33.926,177.894 33.130,178.092 31.478 C 178.387 29.010,178.356 25.851,178.030 25.226 C 177.942 25.056,177.780 24.429,177.672 23.833 C 177.563 23.238,177.405 22.679,177.321 22.592 C 177.236 22.505,177.167 22.291,177.167 22.117 C 177.167 21.944,177.062 21.602,176.934 21.359 C 176.806 21.116,176.603 20.588,176.483 20.186 C 176.363 19.785,176.184 19.372,176.084 19.270 C 175.984 19.167,175.796 18.821,175.666 18.500 C 175.357 17.739,174.145 15.833,173.969 15.833 C 173.895 15.833,173.833 15.754,173.833 15.657 C 173.833 15.442,172.647 14.000,172.471 14.000 C 172.402 14.000,172.275 14.131,172.190 14.292 M73.881 16.583 C 73.882 17.042,73.915 17.209,73.953 16.956 C 73.991 16.703,73.990 16.328,73.951 16.123 C 73.911 15.918,73.880 16.125,73.881 16.583 M73.883 34.333 C 73.883 34.837,73.915 35.044,73.953 34.792 C 73.991 34.540,73.991 34.127,73.953 33.875 C 73.915 33.623,73.883 33.829,73.883 34.333 M100.525 34.053 C 100.330 34.288,100.614 36.333,100.841 36.333 C 100.905 36.333,101.008 36.648,101.069 37.033 C 101.131 37.418,101.240 37.812,101.311 37.908 C 101.383 38.005,101.538 38.421,101.655 38.833 C 101.858 39.545,103.803 43.449,104.169 43.880 C 104.264 43.992,104.581 44.458,104.873 44.917 C 105.165 45.375,105.449 45.788,105.503 45.833 C 105.557 45.879,105.762 46.179,105.959 46.500 C 106.157 46.821,106.491 47.271,106.702 47.500 C 106.914 47.729,107.347 48.254,107.666 48.667 C 108.435 49.663,109.881 51.251,111.990 53.417 C 113.281 54.742,116.479 57.759,117.746 58.847 C 118.111 59.160,118.605 59.604,118.845 59.833 C 119.085 60.063,119.566 60.475,119.914 60.750 C 120.263 61.025,120.743 61.444,120.982 61.682 C 121.221 61.919,121.904 62.519,122.500 63.015 C 123.096 63.511,123.642 64.007,123.713 64.118 C 123.784 64.229,123.944 64.280,124.070 64.232 C 124.249 64.163,125.136 64.777,125.667 65.337 C 125.712 65.386,126.462 66.021,127.333 66.750 C 128.840 68.010,130.104 69.208,130.681 69.923 C 131.015 70.337,132.151 71.369,133.333 72.332 C 133.837 72.743,134.287 73.119,134.333 73.169 C 134.411 73.252,136.331 74.900,137.413 75.812 C 138.492 76.721,140.013 76.683,141.083 75.722 C 141.450 75.392,142.084 74.851,142.493 74.520 C 142.902 74.188,143.356 73.804,143.503 73.667 C 143.873 73.320,145.599 71.851,146.093 71.462 C 147.041 70.717,147.327 70.103,149.614 63.917 C 149.851 63.275,150.148 62.514,150.273 62.225 C 150.825 60.948,150.516 60.719,149.520 61.667 C 149.135 62.033,148.770 62.333,148.710 62.333 C 148.650 62.333,148.371 62.554,148.092 62.823 C 147.626 63.271,145.197 65.368,144.424 65.988 C 144.245 66.132,143.849 66.488,143.545 66.779 C 143.241 67.070,142.930 67.333,142.855 67.362 C 142.719 67.416,140.782 69.089,140.058 69.779 C 139.425 70.381,139.086 70.398,138.472 69.861 C 138.167 69.593,137.692 69.184,137.417 68.952 C 137.142 68.721,136.275 67.980,135.491 67.307 C 134.707 66.634,133.627 65.708,133.091 65.250 C 132.555 64.792,132.032 64.342,131.929 64.250 C 130.750 63.199,129.658 62.333,129.513 62.333 C 129.414 62.333,129.333 62.262,129.333 62.175 C 129.333 61.934,126.972 59.998,126.804 60.101 C 126.687 60.174,125.450 59.220,124.404 58.250 C 124.305 58.158,123.632 57.558,122.909 56.917 C 122.186 56.275,121.329 55.457,121.005 55.099 C 119.535 53.472,118.099 52.000,117.983 52.000 C 117.787 52.000,112.980 47.003,112.338 46.131 C 112.198 45.941,111.915 45.605,111.708 45.385 C 111.502 45.165,111.333 44.924,111.333 44.849 C 111.333 44.774,111.146 44.573,110.917 44.400 C 110.688 44.228,110.500 44.031,110.500 43.961 C 110.500 43.891,110.219 43.445,109.875 42.969 C 109.061 41.842,108.282 40.602,107.802 39.667 C 107.590 39.254,107.360 38.892,107.292 38.861 C 107.223 38.831,107.166 38.718,107.166 38.611 C 107.165 38.504,107.062 38.220,106.936 37.979 C 106.811 37.738,106.462 36.801,106.160 35.896 C 105.859 34.991,105.494 34.159,105.348 34.047 C 104.961 33.750,100.772 33.756,100.525 34.053 M0.079 47.083 C 0.079 53.500,0.100 56.101,0.125 52.863 C 0.150 49.625,0.150 44.375,0.125 41.196 C 0.100 38.017,0.079 40.667,0.079 47.083 M4.833 38.250 C 5.144 38.571,5.436 38.833,5.482 38.833 C 5.528 38.833,5.311 38.571,5.000 38.250 C 4.689 37.929,4.397 37.667,4.351 37.667 C 4.305 37.667,4.522 37.929,4.833 38.250 M399.914 65.167 C 399.914 76.396,399.934 80.990,399.958 75.375 C 399.983 69.760,399.983 60.573,399.958 54.958 C 399.934 49.344,399.914 53.938,399.914 65.167 M54.042 49.125 C 56.677 49.151,60.990 49.151,63.625 49.125 C 66.260 49.099,64.104 49.078,58.833 49.078 C 53.563 49.078,51.406 49.099,54.042 49.125 M302.208 49.124 C 303.285 49.153,305.048 49.153,306.125 49.124 C 307.202 49.095,306.321 49.072,304.167 49.072 C 302.012 49.072,301.131 49.095,302.208 49.124 M344.383 49.124 C 345.190 49.155,346.465 49.155,347.217 49.124 C 347.968 49.093,347.308 49.068,345.750 49.068 C 344.192 49.068,343.577 49.094,344.383 49.124 M389.792 49.121 C 390.090 49.158,390.577 49.158,390.875 49.121 C 391.173 49.084,390.929 49.053,390.333 49.053 C 389.738 49.053,389.494 49.084,389.792 49.121 M30.913 79.750 C 30.913 87.083,30.933 90.059,30.958 86.363 C 30.983 82.666,30.983 76.666,30.958 73.029 C 30.933 69.392,30.913 72.417,30.913 79.750 M3.079 80.000 C 3.079 87.196,3.100 90.140,3.125 86.542 C 3.150 82.944,3.150 77.056,3.125 73.458 C 3.100 69.860,3.079 72.804,3.079 80.000 M34.235 79.833 C 34.235 81.438,34.260 82.094,34.291 81.292 C 34.321 80.490,34.321 79.177,34.291 78.375 C 34.260 77.573,34.235 78.229,34.235 79.833 M0.069 96.917 C 0.070 98.658,0.094 99.348,0.124 98.450 C 0.154 97.551,0.154 96.126,0.124 95.283 C 0.094 94.440,0.069 95.175,0.069 96.917 M9.797 98.290 C 10.282 98.324,11.032 98.323,11.464 98.289 C 11.896 98.255,11.500 98.227,10.583 98.228 C 9.667 98.228,9.313 98.256,9.797 98.290 M21.792 98.287 C 22.090 98.324,22.577 98.324,22.875 98.287 C 23.173 98.250,22.929 98.220,22.333 98.220 C 21.738 98.220,21.494 98.250,21.792 98.287 M23.877 98.286 C 24.131 98.325,24.506 98.324,24.711 98.284 C 24.916 98.244,24.708 98.213,24.250 98.214 C 23.792 98.216,23.624 98.248,23.877 98.286 " stroke="none" fill="#fb2c1b" fill-rule="evenodd"></path><path id="path1" d="M6.833 0.320 C 4.886 0.963,2.525 2.439,2.189 3.223 C 2.156 3.302,1.922 3.602,1.670 3.891 C 1.418 4.180,0.957 4.979,0.647 5.667 L 0.083 6.917 0.083 21.667 L 0.083 36.417 0.770 37.846 C 1.457 39.275,2.903 40.942,4.499 42.144 C 4.820 42.386,5.195 42.707,5.333 42.858 C 5.537 43.082,8.625 45.700,10.320 47.087 C 10.542 47.268,10.888 47.585,11.089 47.792 C 11.290 47.998,11.505 48.167,11.566 48.167 C 11.628 48.167,11.895 48.373,12.159 48.625 C 12.424 48.877,12.915 49.308,13.250 49.583 C 13.585 49.858,14.033 50.233,14.246 50.417 C 14.459 50.600,15.033 51.087,15.522 51.500 C 16.011 51.913,17.689 53.337,19.250 54.667 C 20.812 55.996,22.535 57.458,23.079 57.917 C 24.449 59.070,24.767 59.348,25.320 59.875 C 25.584 60.127,25.878 60.333,25.972 60.333 C 26.067 60.333,26.304 60.558,26.500 60.833 C 26.696 61.108,26.945 61.333,27.055 61.333 C 27.164 61.333,27.440 61.558,27.667 61.833 C 27.894 62.108,28.155 62.335,28.248 62.336 C 28.409 62.339,29.425 63.358,30.044 64.139 C 30.925 65.249,30.902 64.878,30.958 79.292 C 31.015 94.092,31.010 94.170,29.897 95.493 C 29.679 95.752,29.500 96.046,29.500 96.145 C 29.500 96.244,29.275 96.441,29.000 96.583 C 28.725 96.726,28.500 96.905,28.500 96.982 C 28.500 97.215,26.561 98.008,25.608 98.163 C 24.449 98.351,9.599 98.359,8.448 98.172 C 6.402 97.839,4.684 96.568,3.634 94.610 L 3.083 93.583 3.041 80.250 C 3.018 72.917,2.999 66.223,3.000 65.375 L 3.000 63.833 1.500 63.833 L 0.000 63.833 0.004 78.708 C 0.007 87.735,0.072 93.859,0.170 94.286 C 0.876 97.343,3.454 99.997,6.833 101.142 C 7.765 101.458,22.635 101.629,25.566 101.358 C 30.046 100.943,33.529 97.600,34.072 93.194 C 34.213 92.049,34.216 67.377,34.075 66.356 C 33.785 64.259,32.919 62.416,31.589 61.069 C 30.875 60.345,21.191 52.029,19.292 50.508 C 18.673 50.012,18.167 49.545,18.167 49.470 C 18.167 49.395,18.090 49.333,17.995 49.333 C 17.901 49.333,17.583 49.113,17.287 48.844 C 15.577 47.286,9.483 42.167,9.338 42.167 C 9.244 42.167,9.167 42.103,9.167 42.026 C 9.167 41.949,8.548 41.369,7.792 40.738 C 4.435 37.938,4.411 37.913,3.725 36.543 L 3.083 35.263 3.083 21.506 L 3.083 7.750 3.701 6.666 C 4.669 4.967,5.808 4.019,7.647 3.381 C 8.818 2.974,24.962 2.981,26.352 3.388 C 27.830 3.822,28.602 4.357,29.885 5.839 C 30.993 7.118,31.003 7.376,31.000 34.292 L 31.000 37.500 32.587 37.500 L 34.174 37.500 34.128 22.458 C 34.078 5.478,34.166 6.628,32.739 4.381 C 31.784 2.878,29.948 1.249,28.833 0.917 C 28.604 0.848,28.337 0.730,28.240 0.653 C 27.306 -0.090,8.940 -0.375,6.833 0.320 M42.833 50.750 L 42.833 101.500 44.333 101.500 L 45.833 101.500 45.833 76.917 L 45.833 52.333 56.208 52.323 C 70.279 52.308,70.494 52.286,73.018 50.578 C 74.292 49.716,76.167 47.489,76.167 46.838 C 76.167 46.735,76.288 46.416,76.436 46.129 C 76.584 45.843,76.774 45.078,76.857 44.429 C 77.059 42.860,77.051 9.636,76.848 7.917 C 76.487 4.863,74.579 2.333,71.500 0.826 C 69.830 0.009,69.658 0.000,55.825 0.000 L 42.833 0.000 42.833 50.750 M102.398 0.263 C 102.113 0.404,101.775 0.721,101.648 0.968 C 101.521 1.215,101.342 1.508,101.250 1.619 C 101.158 1.731,100.990 1.934,100.875 2.071 C 100.760 2.207,100.667 2.372,100.667 2.436 C 100.667 2.500,100.496 2.784,100.288 3.068 C 100.080 3.351,99.799 3.808,99.664 4.083 C 99.528 4.358,99.376 4.621,99.325 4.667 C 99.134 4.840,98.167 6.512,98.167 6.669 C 98.167 6.759,98.100 6.833,98.019 6.833 C 97.938 6.833,97.743 7.103,97.587 7.433 C 97.430 7.763,97.178 8.177,97.026 8.354 C 96.732 8.696,96.235 9.500,95.651 10.573 C 95.455 10.934,95.198 11.326,95.080 11.444 C 94.961 11.562,94.764 11.886,94.642 12.163 C 94.519 12.440,94.362 12.667,94.293 12.667 C 94.223 12.667,94.167 12.742,94.167 12.835 C 94.167 12.928,93.904 13.377,93.583 13.833 C 93.263 14.290,93.000 14.702,93.000 14.750 C 93.000 14.797,92.775 15.147,92.500 15.526 C 92.225 15.906,92.000 16.318,92.000 16.442 C 92.000 16.565,91.942 16.667,91.871 16.667 C 91.800 16.667,91.595 16.948,91.414 17.292 C 91.234 17.635,91.048 17.954,91.002 18.000 C 90.789 18.208,89.333 20.512,89.333 20.639 C 89.333 20.718,89.183 20.955,89.000 21.167 C 88.817 21.378,88.667 21.652,88.667 21.776 C 88.667 21.899,88.592 22.000,88.500 22.000 C 88.408 22.000,88.333 22.070,88.333 22.156 C 88.333 22.242,88.007 22.789,87.607 23.373 C 87.208 23.956,86.676 24.804,86.425 25.258 C 86.174 25.712,85.836 26.233,85.675 26.417 C 85.513 26.600,85.277 26.994,85.150 27.292 C 85.023 27.590,84.871 27.833,84.813 27.833 C 84.755 27.833,84.611 28.077,84.494 28.375 C 84.378 28.673,84.188 28.994,84.074 29.090 C 82.631 30.291,82.421 32.927,83.667 34.206 C 83.804 34.347,84.217 34.858,84.583 35.340 C 84.950 35.823,85.362 36.339,85.500 36.487 C 85.638 36.635,86.013 37.092,86.333 37.502 C 87.123 38.513,87.339 38.776,87.882 39.390 C 88.138 39.680,88.450 40.104,88.576 40.333 C 88.702 40.563,88.961 40.860,89.153 40.995 C 89.344 41.130,89.501 41.317,89.503 41.412 C 89.505 41.506,89.880 41.985,90.336 42.476 C 90.793 42.967,91.167 43.419,91.167 43.480 C 91.167 43.542,91.373 43.822,91.625 44.102 C 92.342 44.900,93.378 46.162,93.818 46.775 C 94.039 47.082,94.283 47.333,94.360 47.333 C 94.437 47.333,94.500 47.440,94.500 47.569 C 94.500 47.699,94.558 47.831,94.629 47.861 C 94.701 47.892,95.449 48.779,96.292 49.833 C 97.135 50.887,97.976 51.903,98.162 52.089 C 98.348 52.276,98.500 52.513,98.500 52.616 C 98.500 52.719,98.725 52.993,99.000 53.224 C 99.275 53.456,99.500 53.696,99.500 53.759 C 99.500 53.860,99.859 54.314,100.811 55.417 C 100.969 55.600,101.470 56.237,101.924 56.833 C 102.378 57.429,102.832 57.992,102.932 58.083 C 103.153 58.286,106.316 62.214,106.667 62.721 C 106.804 62.920,107.085 63.241,107.292 63.435 C 107.498 63.629,107.667 63.868,107.667 63.965 C 107.667 64.063,107.854 64.290,108.083 64.470 C 108.313 64.650,108.500 64.853,108.500 64.920 C 108.500 64.988,108.760 65.352,109.078 65.730 C 110.200 67.062,112.546 69.947,113.569 71.251 C 113.928 71.709,114.303 72.158,114.403 72.250 C 114.502 72.342,114.921 72.867,115.333 73.417 C 115.746 73.967,116.158 74.499,116.250 74.599 C 116.585 74.966,117.521 76.122,118.768 77.708 C 119.470 78.602,120.110 79.333,120.189 79.333 C 120.268 79.333,120.333 79.417,120.333 79.518 C 120.333 79.620,120.483 79.864,120.666 80.060 C 120.850 80.256,121.535 81.092,122.191 81.917 C 122.846 82.742,123.427 83.454,123.483 83.500 C 123.539 83.546,123.921 84.033,124.334 84.583 C 124.746 85.133,125.290 85.795,125.542 86.054 C 125.794 86.314,126.000 86.576,126.001 86.638 C 126.001 86.700,126.226 86.990,126.501 87.283 C 126.775 87.576,127.000 87.860,127.000 87.916 C 127.000 87.971,127.170 88.181,127.378 88.383 C 127.586 88.585,127.977 89.050,128.247 89.417 C 128.673 89.995,130.451 92.195,131.556 93.513 C 131.755 93.749,132.254 94.385,132.667 94.928 C 133.079 95.470,133.567 96.074,133.750 96.270 C 133.933 96.466,134.271 96.871,134.500 97.170 C 134.894 97.682,136.237 99.336,137.369 100.702 C 137.767 101.182,138.043 101.344,138.605 101.429 C 140.100 101.653,140.076 101.673,143.632 97.227 C 143.788 97.031,144.156 96.581,144.448 96.227 C 144.985 95.578,145.665 94.731,146.583 93.570 C 146.858 93.222,147.462 92.483,147.925 91.927 C 148.388 91.371,149.242 90.317,149.822 89.583 C 150.402 88.850,150.924 88.212,150.981 88.167 C 151.039 88.121,151.347 87.723,151.668 87.283 C 151.988 86.843,152.438 86.281,152.667 86.033 C 152.896 85.786,153.421 85.138,153.833 84.594 C 154.246 84.049,154.733 83.443,154.917 83.247 C 155.100 83.050,155.438 82.644,155.667 82.343 C 156.381 81.406,157.167 80.432,157.507 80.060 C 157.686 79.864,157.833 79.620,157.833 79.518 C 157.833 79.417,157.898 79.333,157.978 79.333 C 158.057 79.333,158.697 78.602,159.399 77.708 C 160.617 76.158,161.324 75.287,162.076 74.411 C 162.263 74.193,162.642 73.710,162.917 73.339 C 163.192 72.968,163.808 72.233,164.287 71.707 C 164.765 71.181,165.159 70.662,165.162 70.556 C 165.164 70.449,165.223 70.336,165.292 70.306 C 165.360 70.275,165.927 69.612,166.552 68.833 C 167.176 68.054,167.905 67.154,168.173 66.833 C 168.440 66.512,168.885 65.978,169.162 65.645 C 169.440 65.312,169.667 64.985,169.667 64.919 C 169.667 64.852,169.854 64.650,170.083 64.470 C 170.313 64.290,170.500 64.068,170.500 63.977 C 170.500 63.886,170.687 63.611,170.916 63.364 C 171.145 63.118,171.724 62.429,172.204 61.833 C 172.684 61.237,173.118 60.712,173.167 60.667 C 173.217 60.621,173.663 60.058,174.158 59.417 C 174.654 58.775,175.193 58.100,175.356 57.917 C 175.520 57.733,175.900 57.273,176.202 56.893 C 176.503 56.513,176.975 55.919,177.250 55.572 C 177.525 55.226,177.956 54.702,178.208 54.407 C 178.460 54.113,178.667 53.821,178.667 53.759 C 178.667 53.696,178.892 53.456,179.167 53.224 C 179.442 52.993,179.667 52.719,179.667 52.616 C 179.667 52.513,179.816 52.276,179.998 52.089 C 180.375 51.703,181.346 50.539,182.083 49.591 C 183.013 48.395,183.416 47.917,183.542 47.861 C 183.610 47.831,183.667 47.737,183.667 47.653 C 183.667 47.569,183.798 47.366,183.958 47.203 C 184.119 47.039,184.475 46.617,184.750 46.265 C 185.025 45.912,185.438 45.414,185.667 45.157 C 186.627 44.080,187.000 43.583,187.000 43.381 C 187.000 43.263,187.061 43.167,187.135 43.167 C 187.210 43.167,187.641 42.709,188.094 42.150 C 188.546 41.591,189.032 41.010,189.173 40.858 C 189.314 40.707,189.650 40.283,189.920 39.917 C 190.415 39.244,190.775 38.789,191.086 38.440 C 191.179 38.335,191.516 37.914,191.836 37.503 C 192.155 37.092,192.529 36.635,192.667 36.487 C 192.804 36.339,193.217 35.823,193.583 35.340 C 193.950 34.858,194.362 34.347,194.500 34.206 C 195.698 32.976,195.508 30.062,194.171 29.167 C 194.102 29.121,193.913 28.821,193.750 28.500 C 193.587 28.179,193.404 27.879,193.343 27.833 C 193.282 27.787,193.107 27.479,192.953 27.148 C 192.799 26.817,192.559 26.451,192.420 26.336 C 192.281 26.220,192.167 26.023,192.167 25.896 C 192.167 25.770,192.092 25.667,192.000 25.667 C 191.908 25.667,191.833 25.584,191.833 25.482 C 191.833 25.381,191.383 24.621,190.833 23.793 C 190.283 22.965,189.833 22.223,189.833 22.144 C 189.833 22.065,189.775 22.000,189.703 22.000 C 189.632 22.000,189.481 21.794,189.368 21.542 C 189.124 20.996,188.982 20.758,188.001 19.241 C 187.589 18.604,187.195 18.058,187.126 18.028 C 187.057 17.997,187.000 17.906,187.000 17.825 C 187.000 17.697,185.967 15.967,185.127 14.691 C 184.967 14.448,184.743 14.063,184.629 13.833 C 184.514 13.604,184.345 13.326,184.252 13.214 C 183.861 12.744,183.733 12.552,183.420 11.958 C 183.239 11.615,183.038 11.333,182.973 11.333 C 182.909 11.333,182.805 11.165,182.742 10.958 C 182.679 10.752,182.460 10.358,182.255 10.083 C 182.049 9.808,181.832 9.433,181.772 9.250 C 181.712 9.067,181.439 8.663,181.165 8.352 C 180.891 8.042,180.667 7.700,180.667 7.592 C 180.667 7.484,180.535 7.251,180.375 7.073 C 180.215 6.895,179.972 6.525,179.836 6.250 C 179.600 5.774,179.011 4.844,178.833 4.667 C 178.787 4.621,178.639 4.358,178.503 4.083 C 178.368 3.808,178.087 3.351,177.878 3.068 C 177.670 2.784,177.500 2.497,177.500 2.431 C 177.500 2.364,177.406 2.205,177.292 2.077 C 176.920 1.663,176.754 1.425,176.518 0.966 C 175.983 -0.071,178.714 -0.000,139.058 0.004 C 106.904 0.007,102.859 0.036,102.398 0.263 M200.667 1.500 L 200.667 3.000 207.583 3.000 L 214.500 3.000 214.500 52.250 L 214.500 101.500 216.083 101.500 L 217.667 101.500 217.667 52.250 L 217.667 3.000 224.667 3.000 L 231.667 3.000 231.667 1.500 L 231.667 0.000 216.167 0.000 L 200.667 0.000 200.667 1.500 M240.333 1.500 L 240.333 3.000 247.333 3.000 L 254.333 3.000 254.333 52.250 L 254.333 101.500 255.917 101.500 L 257.500 101.500 257.500 52.250 L 257.500 3.000 264.500 3.000 L 271.500 3.000 271.500 1.500 L 271.500 0.000 255.917 0.000 L 240.333 0.000 240.333 1.500 M286.602 0.262 C 286.547 0.406,286.425 2.253,286.332 4.366 C 286.239 6.480,286.128 8.368,286.087 8.563 C 286.045 8.757,285.926 10.304,285.821 12.000 C 285.716 13.696,285.606 15.216,285.575 15.378 C 285.544 15.539,285.475 16.777,285.422 18.128 C 285.370 19.478,285.292 21.108,285.250 21.750 C 285.208 22.392,285.132 23.554,285.082 24.333 C 285.032 25.113,284.957 26.050,284.916 26.417 C 284.875 26.783,284.795 27.833,284.739 28.750 C 284.683 29.667,284.612 30.580,284.582 30.780 C 284.551 30.979,284.480 32.179,284.423 33.446 C 284.299 36.241,284.010 41.032,283.918 41.833 C 283.881 42.154,283.800 43.242,283.738 44.250 C 283.677 45.258,283.600 46.226,283.568 46.400 C 283.536 46.574,283.467 47.886,283.414 49.316 C 283.323 51.795,283.079 55.725,282.917 57.333 C 282.848 58.010,282.487 63.617,281.989 71.750 C 281.888 73.400,281.781 74.905,281.752 75.096 C 281.723 75.286,281.645 76.373,281.579 77.512 C 281.513 78.651,281.438 79.696,281.413 79.835 C 281.388 79.973,281.321 81.098,281.264 82.335 C 281.091 86.066,280.760 91.025,280.398 95.310 C 280.341 95.985,280.247 97.654,280.189 99.019 L 280.083 101.500 281.606 101.500 L 283.128 101.500 283.229 100.458 C 283.284 99.885,283.371 98.817,283.422 98.083 C 283.472 97.350,283.546 96.412,283.586 96.000 C 283.625 95.587,283.737 94.050,283.833 92.583 C 283.929 91.117,284.040 89.579,284.078 89.167 C 284.117 88.754,284.195 87.329,284.251 86.000 C 284.341 83.885,284.833 76.516,285.081 73.550 C 285.129 72.981,285.243 70.881,285.335 68.883 C 285.426 66.885,285.535 65.025,285.577 64.750 C 285.618 64.475,285.693 63.612,285.744 62.833 C 285.794 62.054,285.947 59.917,286.084 58.083 C 286.221 56.250,286.333 54.206,286.333 53.542 L 286.333 52.333 297.240 52.333 L 308.146 52.333 308.234 53.042 C 308.405 54.415,308.495 55.788,308.665 59.583 C 308.759 61.692,308.872 63.717,308.915 64.083 C 308.958 64.450,309.073 65.950,309.170 67.417 C 309.267 68.883,309.376 70.383,309.413 70.750 C 309.496 71.584,309.632 74.057,309.760 77.051 C 309.815 78.317,309.885 79.517,309.916 79.718 C 309.948 79.919,310.019 80.796,310.074 81.667 C 310.129 82.537,310.208 83.550,310.249 83.917 C 310.289 84.283,310.363 85.258,310.412 86.083 C 310.461 86.908,310.537 88.071,310.580 88.667 C 310.624 89.263,310.704 90.837,310.758 92.167 C 310.812 93.496,310.886 94.846,310.923 95.167 C 310.960 95.487,311.070 96.875,311.168 98.250 C 311.422 101.851,311.239 101.522,312.963 101.465 L 314.417 101.417 314.417 100.083 C 314.417 99.350,314.359 98.000,314.289 97.083 C 313.970 92.924,313.679 88.382,313.589 86.152 C 313.536 84.816,313.465 83.578,313.433 83.402 C 313.400 83.227,313.323 82.258,313.260 81.250 C 313.198 80.242,313.078 78.629,312.993 77.667 C 312.908 76.704,312.764 74.267,312.672 72.250 C 312.580 70.233,312.464 68.133,312.415 67.583 C 312.365 67.033,312.294 66.208,312.257 65.750 C 312.181 64.815,311.755 58.105,311.490 53.667 C 311.395 52.063,311.281 50.375,311.237 49.917 C 311.046 47.896,310.817 44.308,310.665 40.945 C 310.574 38.943,310.468 37.106,310.429 36.861 C 310.389 36.617,310.310 35.592,310.252 34.583 C 310.195 33.575,310.120 32.525,310.087 32.250 C 310.029 31.768,309.862 29.064,309.492 22.625 C 309.396 20.952,309.284 19.208,309.243 18.750 C 309.022 16.288,308.675 10.912,308.585 8.544 C 308.528 7.055,308.453 5.688,308.418 5.506 C 308.383 5.323,308.301 4.253,308.237 3.129 C 308.172 2.004,308.099 0.971,308.073 0.833 C 308.047 0.696,308.020 0.452,308.013 0.292 C 307.994 -0.135,286.765 -0.164,286.602 0.262 M323.000 50.750 L 323.000 101.500 324.583 101.500 L 326.167 101.500 326.167 76.917 L 326.167 52.333 334.958 52.317 C 339.794 52.308,345.250 52.251,347.083 52.190 L 350.417 52.080 351.876 51.381 C 354.378 50.182,356.005 48.293,356.942 45.500 C 357.234 44.631,357.250 43.622,357.250 25.917 L 357.250 7.250 356.696 5.965 C 355.662 3.570,354.231 2.052,352.000 0.985 C 349.850 -0.043,350.596 0.004,336.208 0.002 L 323.000 0.000 323.000 50.750 M366.000 50.750 L 366.000 101.500 367.500 101.500 L 369.000 101.500 369.000 76.917 L 369.000 52.333 379.292 52.324 C 391.299 52.312,392.791 52.238,394.333 51.571 C 396.487 50.639,398.340 48.861,399.355 46.750 L 399.917 45.583 399.917 26.083 L 399.917 6.583 399.303 5.371 C 397.934 2.665,395.188 0.552,392.546 0.170 C 391.889 0.075,386.104 0.005,378.708 0.003 L 366.000 0.000 366.000 50.750 M68.500 3.225 C 70.210 3.456,73.167 5.526,73.167 6.493 C 73.167 6.643,73.229 6.838,73.304 6.925 C 73.899 7.609,73.917 8.163,73.910 26.083 L 73.904 43.583 73.527 44.752 C 73.042 46.257,71.932 47.557,70.374 48.443 L 69.250 49.083 57.542 49.129 L 45.833 49.174 45.833 26.062 L 45.833 2.950 56.958 3.059 C 63.077 3.120,68.271 3.194,68.500 3.225 M305.044 3.778 C 305.095 4.221,305.258 6.533,305.407 8.917 C 305.852 16.057,306.344 23.305,306.510 25.167 C 306.596 26.129,306.666 27.555,306.667 28.335 C 306.667 29.115,306.778 31.178,306.913 32.918 C 307.421 39.441,307.626 42.576,307.755 45.794 C 307.811 47.194,307.890 48.524,307.931 48.750 L 308.006 49.162 297.291 49.164 L 286.576 49.166 286.866 45.541 C 287.025 43.548,287.233 40.229,287.329 38.167 C 287.424 36.104,287.533 34.229,287.569 34.000 C 287.606 33.771,287.684 32.833,287.743 31.917 C 287.878 29.801,287.991 28.302,288.093 27.272 C 288.137 26.826,288.247 24.876,288.336 22.939 C 288.426 21.002,288.570 18.517,288.657 17.417 C 288.744 16.317,288.860 14.667,288.915 13.750 C 288.969 12.833,289.046 11.858,289.085 11.583 C 289.124 11.308,289.197 10.146,289.248 9.000 C 289.299 7.854,289.383 6.076,289.436 5.048 L 289.532 3.180 290.891 3.131 C 291.638 3.105,295.108 3.059,298.600 3.028 L 304.950 2.973 305.044 3.778 M349.500 3.346 C 351.358 3.956,352.977 5.373,353.674 7.000 C 354.185 8.191,354.409 20.032,354.198 34.729 L 354.062 44.250 353.656 45.250 C 353.107 46.602,351.616 48.097,350.250 48.667 L 349.250 49.083 337.708 49.132 L 326.167 49.180 326.167 26.066 L 326.167 2.951 337.542 3.053 C 345.397 3.123,349.097 3.214,349.500 3.346 M392.446 3.398 C 394.348 4.069,395.585 5.116,396.417 6.761 L 396.917 7.750 396.961 25.987 L 397.004 44.224 396.493 45.321 C 395.838 46.726,394.881 47.706,393.417 48.473 L 392.250 49.083 380.625 49.134 L 369.000 49.184 369.000 26.066 L 369.000 2.949 380.388 3.055 C 389.582 3.141,391.906 3.207,392.446 3.398 M134.394 4.417 C 134.341 4.554,134.231 4.667,134.149 4.667 C 134.067 4.667,134.000 4.752,134.000 4.855 C 134.000 4.959,133.868 5.166,133.707 5.314 C 133.546 5.462,132.965 6.143,132.415 6.827 C 131.306 8.209,131.171 8.373,130.579 9.066 C 130.352 9.331,130.167 9.687,130.167 9.856 C 130.167 10.160,130.023 10.370,129.115 11.390 C 128.858 11.680,128.520 12.104,128.365 12.333 C 127.870 13.065,127.285 13.667,127.068 13.667 C 126.953 13.667,126.684 13.893,126.471 14.169 C 126.258 14.446,125.830 14.952,125.520 15.294 C 125.210 15.637,124.653 16.329,124.281 16.833 C 123.910 17.337,123.559 17.787,123.502 17.833 C 123.444 17.879,122.877 18.554,122.241 19.333 C 121.605 20.112,120.915 20.937,120.709 21.165 C 120.502 21.393,120.333 21.674,120.333 21.790 C 120.333 21.905,120.270 22.000,120.192 22.000 C 120.114 22.000,119.720 22.422,119.317 22.938 C 118.913 23.454,118.396 24.088,118.167 24.347 C 117.938 24.606,117.600 25.016,117.417 25.259 C 117.233 25.501,116.727 26.116,116.292 26.625 C 115.856 27.135,115.500 27.615,115.500 27.693 C 115.500 28.241,115.026 27.493,114.745 26.500 C 114.613 26.033,114.073 24.737,113.827 24.294 C 113.739 24.135,113.667 23.852,113.667 23.667 C 113.667 23.481,113.596 23.199,113.509 23.039 C 113.250 22.565,112.500 20.544,112.494 20.305 C 112.491 20.183,112.344 19.783,112.167 19.417 C 111.990 19.050,111.842 18.686,111.839 18.609 C 111.836 18.531,111.728 18.231,111.598 17.942 C 111.469 17.653,111.296 17.197,111.213 16.929 C 110.964 16.118,110.555 15.996,110.050 16.583 C 109.814 16.858,109.327 17.415,108.967 17.821 C 108.055 18.847,107.383 20.333,107.830 20.333 C 107.924 20.333,108.000 20.450,108.000 20.592 C 108.000 20.735,108.142 21.166,108.314 21.551 C 108.487 21.935,108.682 22.512,108.747 22.833 C 108.813 23.154,108.957 23.567,109.067 23.750 C 109.178 23.933,109.362 24.421,109.475 24.833 C 109.705 25.673,110.186 26.873,110.344 27.000 C 110.400 27.046,110.582 27.590,110.748 28.208 C 110.914 28.827,111.113 29.333,111.191 29.333 C 111.269 29.333,111.333 29.473,111.333 29.643 C 111.333 30.043,106.742 30.160,95.979 30.036 L 88.709 29.952 89.063 29.274 C 89.257 28.902,89.545 28.465,89.703 28.304 C 89.860 28.143,90.182 27.653,90.418 27.214 C 91.352 25.481,91.589 25.079,91.741 24.970 C 91.914 24.845,92.830 23.400,93.278 22.542 C 93.434 22.244,93.623 22.000,93.698 22.000 C 93.772 22.000,93.833 21.926,93.833 21.836 C 93.833 21.641,94.812 20.012,95.119 19.696 C 95.237 19.575,95.333 19.381,95.333 19.264 C 95.333 19.147,95.483 18.916,95.667 18.750 C 95.850 18.584,96.000 18.383,96.000 18.304 C 96.000 18.155,96.833 16.814,97.018 16.667 C 97.108 16.594,97.512 15.889,98.081 14.812 C 98.172 14.640,98.303 14.500,98.373 14.500 C 98.443 14.500,98.500 14.423,98.500 14.329 C 98.500 14.235,98.763 13.777,99.083 13.311 C 99.404 12.844,99.667 12.359,99.667 12.231 C 99.667 12.104,99.724 12.000,99.794 12.000 C 99.865 12.000,100.180 11.569,100.495 11.042 C 100.809 10.515,101.128 10.008,101.202 9.917 C 101.448 9.614,102.079 8.592,102.333 8.083 C 102.771 7.207,103.167 6.987,103.167 7.619 C 103.167 7.746,103.317 8.160,103.500 8.539 C 103.683 8.919,103.834 9.309,103.834 9.406 C 103.835 9.504,103.941 9.786,104.070 10.033 C 104.199 10.281,104.423 10.889,104.567 11.385 C 104.711 11.881,104.942 12.504,105.080 12.769 C 105.218 13.033,105.332 13.349,105.332 13.470 C 105.333 13.700,105.728 14.167,105.921 14.167 C 106.058 14.167,108.874 11.546,109.028 11.274 C 109.089 11.167,108.998 10.780,108.825 10.414 C 108.653 10.049,108.508 9.637,108.505 9.500 C 108.501 9.362,108.395 9.052,108.269 8.810 C 108.142 8.569,107.913 7.969,107.758 7.477 C 107.482 6.603,107.355 6.267,106.915 5.250 C 106.396 4.049,104.922 4.167,120.500 4.167 C 132.867 4.167,134.478 4.196,134.394 4.417 M171.545 4.458 C 171.484 4.619,171.337 4.938,171.218 5.167 C 171.099 5.396,171.002 5.715,171.001 5.875 C 171.000 6.035,170.941 6.167,170.870 6.167 C 170.798 6.167,170.638 6.523,170.513 6.958 C 170.389 7.394,170.147 8.065,169.977 8.449 C 169.806 8.834,169.666 9.246,169.666 9.366 C 169.665 9.485,169.544 9.808,169.396 10.083 C 169.249 10.358,169.134 10.823,169.142 11.117 C 169.150 11.410,168.891 12.348,168.567 13.200 C 168.243 14.053,167.895 14.975,167.794 15.250 C 167.693 15.525,167.475 15.846,167.311 15.963 C 167.147 16.080,166.964 16.437,166.905 16.755 C 166.845 17.073,166.742 17.333,166.675 17.333 C 166.608 17.333,166.454 17.746,166.333 18.250 C 166.212 18.754,166.059 19.167,165.992 19.167 C 165.925 19.167,165.735 19.673,165.570 20.292 C 165.405 20.910,165.222 21.454,165.163 21.500 C 165.104 21.546,164.919 21.996,164.753 22.500 C 164.586 23.004,164.348 23.653,164.225 23.942 C 164.101 24.231,164.000 24.587,164.000 24.734 C 164.000 24.880,163.931 25.000,163.847 25.000 C 163.762 25.000,163.641 25.244,163.578 25.542 C 163.514 25.840,163.321 26.398,163.148 26.783 C 162.975 27.167,162.833 27.578,162.833 27.695 C 162.833 27.812,162.708 27.722,162.554 27.495 C 162.401 27.269,162.007 26.777,161.679 26.402 C 161.352 26.027,160.896 25.475,160.667 25.174 C 160.438 24.874,160.135 24.505,159.994 24.356 C 159.853 24.206,159.544 23.821,159.307 23.500 C 159.071 23.179,158.531 22.542,158.107 22.083 C 157.683 21.625,157.336 21.162,157.335 21.056 C 157.334 20.949,157.274 20.836,157.201 20.806 C 157.128 20.775,156.551 20.112,155.918 19.333 C 155.286 18.554,154.725 17.879,154.672 17.833 C 154.618 17.787,154.314 17.413,153.996 17.001 C 153.677 16.588,153.304 16.107,153.167 15.930 C 153.029 15.754,152.759 15.454,152.567 15.263 C 152.375 15.073,152.128 14.748,152.019 14.542 C 151.525 13.604,151.113 13.566,149.884 14.342 C 147.747 15.691,147.533 16.069,148.373 17.002 C 148.735 17.404,149.750 18.650,150.702 19.863 C 150.951 20.179,152.287 21.821,153.672 23.511 C 155.056 25.201,156.502 26.996,156.883 27.500 C 157.265 28.004,157.729 28.567,157.914 28.750 C 158.099 28.933,158.383 29.290,158.546 29.542 L 158.841 30.000 139.083 30.000 L 119.326 30.000 119.621 29.547 C 119.784 29.299,120.104 28.893,120.333 28.645 C 120.563 28.398,121.237 27.577,121.833 26.821 C 122.429 26.064,123.085 25.266,123.292 25.048 C 123.498 24.830,123.667 24.584,123.667 24.502 C 123.667 24.420,123.799 24.254,123.961 24.134 C 124.123 24.015,124.381 23.729,124.535 23.500 C 124.688 23.271,125.025 22.847,125.282 22.557 C 125.824 21.948,126.035 21.691,126.833 20.669 C 127.154 20.258,127.529 19.799,127.667 19.649 C 127.804 19.499,128.080 19.160,128.280 18.896 C 128.479 18.632,128.798 18.251,128.988 18.049 C 129.178 17.846,129.333 17.602,129.333 17.507 C 129.333 17.411,129.407 17.333,129.498 17.333 C 129.682 17.333,130.500 16.106,130.500 15.829 C 130.500 15.506,133.244 12.192,133.522 12.179 C 133.672 12.172,133.929 11.960,134.093 11.708 C 134.256 11.456,134.527 11.152,134.695 11.032 C 134.863 10.912,135.000 10.751,135.000 10.674 C 135.000 10.597,135.244 10.269,135.542 9.947 C 135.840 9.624,136.253 9.148,136.460 8.888 C 136.666 8.629,137.229 7.940,137.710 7.357 C 138.190 6.775,138.714 6.100,138.874 5.857 C 139.034 5.615,139.165 5.506,139.166 5.616 C 139.166 5.726,139.654 6.372,140.250 7.053 C 140.846 7.733,141.333 8.334,141.333 8.387 C 141.333 8.441,141.502 8.663,141.708 8.881 C 141.915 9.098,142.346 9.597,142.667 9.989 C 142.987 10.381,143.415 10.900,143.616 11.142 C 143.817 11.385,144.122 11.762,144.293 11.981 C 144.638 12.418,144.907 12.353,145.860 11.600 C 146.858 10.812,147.104 10.632,147.542 10.370 C 147.794 10.218,148.000 9.972,148.000 9.822 C 148.000 9.672,147.794 9.319,147.542 9.038 C 147.290 8.756,147.008 8.426,146.917 8.304 C 146.302 7.483,144.702 5.537,144.460 5.314 C 144.299 5.166,144.167 4.959,144.167 4.855 C 144.167 4.752,144.100 4.667,144.018 4.667 C 143.936 4.667,143.826 4.554,143.773 4.417 C 143.688 4.196,145.300 4.167,157.667 4.167 C 170.921 4.167,171.650 4.182,171.545 4.458 M175.387 7.375 C 175.495 7.490,175.696 7.808,175.833 8.083 C 176.088 8.592,176.718 9.614,176.964 9.917 C 177.039 10.008,177.357 10.515,177.672 11.042 C 177.987 11.569,178.302 12.000,178.372 12.000 C 178.443 12.000,178.500 12.104,178.500 12.231 C 178.500 12.359,178.762 12.844,179.083 13.311 C 179.404 13.777,179.667 14.235,179.667 14.329 C 179.667 14.423,179.742 14.500,179.833 14.500 C 179.925 14.500,180.000 14.580,180.000 14.678 C 180.000 14.776,180.188 15.101,180.417 15.402 C 180.646 15.702,180.833 16.029,180.833 16.129 C 180.833 16.228,180.927 16.409,181.042 16.530 C 181.357 16.862,182.167 18.140,182.167 18.304 C 182.167 18.383,182.317 18.584,182.500 18.750 C 182.683 18.916,182.833 19.147,182.833 19.264 C 182.833 19.381,182.934 19.576,183.056 19.699 C 183.295 19.938,185.108 22.837,185.673 23.882 C 185.860 24.229,186.142 24.644,186.299 24.804 C 186.574 25.084,186.832 25.515,187.748 27.214 C 187.985 27.653,188.307 28.143,188.464 28.304 C 188.621 28.465,188.914 28.911,189.115 29.296 L 189.481 29.996 183.865 30.039 L 178.250 30.083 178.037 31.910 C 177.920 32.914,177.861 33.833,177.907 33.951 C 177.972 34.121,179.138 34.167,183.437 34.167 C 188.704 34.167,188.876 34.177,188.609 34.471 C 188.457 34.639,188.333 34.835,188.333 34.906 C 188.333 34.977,188.146 35.183,187.917 35.363 C 187.688 35.543,187.500 35.757,187.500 35.838 C 187.500 35.919,187.331 36.167,187.125 36.389 C 186.614 36.940,185.915 37.780,185.280 38.607 C 184.228 39.977,183.908 40.375,183.378 40.974 C 183.082 41.309,182.795 41.715,182.742 41.875 C 182.688 42.035,182.585 42.167,182.513 42.167 C 182.441 42.167,182.016 42.635,181.567 43.208 C 181.119 43.781,180.662 44.362,180.551 44.500 C 180.249 44.876,177.723 48.010,177.261 48.583 C 177.039 48.858,176.589 49.392,176.262 49.770 C 175.935 50.148,175.667 50.502,175.667 50.556 C 175.667 50.611,175.460 50.879,175.208 51.153 C 174.956 51.426,174.525 51.957,174.250 52.332 C 173.975 52.707,173.594 53.179,173.402 53.382 C 173.211 53.584,172.576 54.350,171.992 55.083 C 171.407 55.817,170.887 56.454,170.836 56.500 C 170.785 56.546,170.343 57.097,169.855 57.725 C 169.367 58.353,168.867 58.991,168.744 59.142 C 168.621 59.293,168.249 59.754,167.918 60.167 C 167.586 60.579,167.113 61.168,166.866 61.474 C 166.619 61.781,166.248 62.188,166.042 62.379 C 165.835 62.570,165.667 62.804,165.667 62.899 C 165.667 62.994,165.517 63.224,165.333 63.411 C 165.150 63.597,164.608 64.237,164.128 64.833 C 163.649 65.429,163.215 65.954,163.165 66.000 C 163.116 66.046,162.815 66.421,162.497 66.833 C 162.180 67.246,161.751 67.770,161.543 67.998 C 161.336 68.227,161.167 68.470,161.167 68.540 C 161.167 68.610,161.035 68.802,160.875 68.966 C 160.715 69.131,160.283 69.627,159.917 70.067 C 159.550 70.507,159.044 71.114,158.792 71.414 C 158.540 71.715,158.333 72.001,158.333 72.051 C 158.333 72.100,158.127 72.354,157.875 72.614 C 157.414 73.091,156.829 73.796,156.129 74.722 C 155.511 75.540,153.613 77.899,153.384 78.134 C 153.267 78.254,152.815 78.817,152.380 79.384 C 151.378 80.690,151.179 80.937,150.667 81.514 C 150.438 81.771,150.063 82.222,149.833 82.515 C 149.604 82.808,149.154 83.359,148.833 83.739 C 148.512 84.120,148.063 84.709,147.833 85.048 C 147.604 85.387,147.360 85.665,147.292 85.666 C 147.223 85.666,147.167 85.738,147.167 85.826 C 147.167 85.913,146.998 86.159,146.792 86.371 C 146.585 86.583,146.156 87.083,145.838 87.481 C 144.816 88.758,144.798 88.778,144.879 88.500 C 144.920 88.362,145.052 87.856,145.174 87.375 C 145.296 86.894,145.454 86.500,145.524 86.500 C 145.594 86.500,145.701 86.237,145.761 85.915 C 145.822 85.593,145.938 85.289,146.019 85.238 C 146.100 85.188,146.167 84.968,146.167 84.750 C 146.167 84.532,146.224 84.317,146.295 84.274 C 146.366 84.230,146.685 83.419,147.004 82.472 C 147.322 81.525,147.628 80.712,147.683 80.667 C 147.737 80.621,147.837 80.358,147.904 80.083 C 147.971 79.808,148.126 79.358,148.249 79.083 C 148.879 77.674,149.139 76.987,149.341 76.199 C 149.463 75.723,149.615 75.333,149.678 75.333 C 149.741 75.333,149.929 74.808,150.095 74.167 C 150.261 73.525,150.455 73.000,150.525 73.000 C 150.594 73.000,150.701 72.737,150.761 72.417 C 150.821 72.096,150.929 71.833,151.000 71.833 C 151.071 71.833,151.176 71.590,151.232 71.292 C 151.289 70.994,151.446 70.538,151.582 70.278 C 151.717 70.018,151.911 69.493,152.012 69.111 C 152.114 68.729,152.296 68.192,152.418 67.917 C 153.213 66.121,153.367 65.670,153.414 65.000 C 153.443 64.587,153.614 63.875,153.794 63.417 C 153.975 62.958,154.590 61.308,155.162 59.750 C 156.363 56.478,156.599 55.913,157.023 55.308 C 157.194 55.064,157.333 54.708,157.333 54.516 C 157.333 54.324,157.408 54.167,157.500 54.167 C 157.592 54.167,157.667 54.084,157.667 53.984 C 157.667 53.883,157.770 53.564,157.897 53.275 C 158.024 52.986,158.220 52.487,158.333 52.167 C 158.613 51.374,158.983 50.478,159.175 50.127 C 159.262 49.968,159.333 49.686,159.333 49.500 C 159.333 49.314,159.406 49.032,159.494 48.873 C 159.843 48.245,160.302 47.041,160.511 46.208 C 160.631 45.727,160.783 45.333,160.848 45.333 C 160.913 45.333,161.057 44.958,161.167 44.500 C 161.277 44.042,161.434 43.667,161.517 43.667 C 161.599 43.667,161.667 43.535,161.668 43.375 C 161.668 43.215,161.770 42.889,161.894 42.653 C 162.017 42.416,162.254 41.778,162.420 41.236 C 162.586 40.694,162.775 40.175,162.842 40.083 C 162.908 39.992,163.100 39.448,163.268 38.875 C 163.436 38.302,163.632 37.833,163.704 37.833 C 163.775 37.833,163.836 37.702,163.839 37.542 C 163.842 37.381,163.990 36.950,164.167 36.583 C 164.344 36.217,164.491 35.823,164.494 35.709 C 164.497 35.596,164.630 35.202,164.789 34.834 L 165.079 34.167 169.023 34.167 L 172.967 34.167 173.157 33.625 C 173.261 33.327,173.392 32.390,173.448 31.542 L 173.550 30.000 170.105 30.000 L 166.660 30.000 166.772 29.542 C 166.834 29.290,166.935 29.046,166.996 29.000 C 167.057 28.954,167.240 28.439,167.401 27.854 C 167.563 27.270,167.836 26.542,168.008 26.236 C 168.180 25.930,168.445 25.246,168.597 24.715 C 168.749 24.184,168.928 23.675,168.995 23.583 C 169.061 23.492,169.243 23.004,169.398 22.500 C 169.553 21.996,169.747 21.433,169.828 21.250 C 169.910 21.067,170.102 20.639,170.254 20.300 C 170.406 19.961,170.489 19.616,170.438 19.534 C 170.343 19.380,170.571 18.336,170.829 17.750 C 170.909 17.567,171.247 16.695,171.579 15.814 C 171.912 14.932,172.327 14.057,172.502 13.870 C 172.677 13.682,172.871 13.316,172.933 13.056 C 172.995 12.796,173.099 12.508,173.164 12.417 C 173.229 12.325,173.409 11.838,173.564 11.333 C 173.719 10.829,173.915 10.267,173.999 10.083 C 174.464 9.070,175.000 7.643,175.000 7.422 C 175.000 7.112,175.125 7.097,175.387 7.375 M105.250 34.000 C 105.314 34.103,106.807 34.167,109.177 34.167 C 112.524 34.167,113.000 34.199,113.000 34.426 C 113.000 34.568,113.152 35.018,113.338 35.426 C 113.523 35.833,113.720 36.392,113.775 36.667 C 113.830 36.942,113.932 37.167,114.002 37.167 C 114.072 37.167,114.178 37.424,114.237 37.738 C 114.296 38.052,114.398 38.333,114.464 38.363 C 114.530 38.392,114.721 38.941,114.890 39.583 C 115.058 40.224,115.250 40.786,115.317 40.833 C 115.383 40.879,115.574 41.367,115.740 41.917 C 115.907 42.467,116.108 42.988,116.188 43.075 C 116.268 43.162,116.333 43.335,116.333 43.459 C 116.333 43.583,116.475 44.000,116.648 44.384 C 116.821 44.769,117.014 45.327,117.078 45.625 C 117.141 45.923,117.262 46.167,117.347 46.167 C 117.431 46.167,117.501 46.298,117.502 46.458 C 117.506 46.915,118.203 48.844,118.675 49.706 C 118.762 49.865,118.833 50.148,118.833 50.333 C 118.833 50.519,118.904 50.801,118.989 50.961 C 119.371 51.669,119.646 52.373,119.847 53.156 C 119.966 53.620,120.124 54.000,120.198 54.000 C 120.273 54.000,120.333 54.100,120.333 54.223 C 120.333 54.495,121.174 55.374,122.910 56.917 C 123.633 57.558,124.305 58.158,124.404 58.250 C 125.074 58.871,126.647 60.167,126.731 60.167 C 126.892 60.167,126.851 59.197,126.686 59.095 C 126.604 59.045,126.489 58.746,126.430 58.431 C 126.371 58.115,126.266 57.833,126.197 57.804 C 126.127 57.774,125.947 57.337,125.795 56.833 C 125.449 55.683,124.542 53.214,124.172 52.417 C 123.931 51.898,123.500 50.514,123.500 50.258 C 123.500 50.131,123.444 50.003,123.375 49.972 C 123.306 49.942,123.032 49.258,122.765 48.453 C 122.498 47.648,122.191 46.818,122.082 46.609 C 121.974 46.399,121.830 46.008,121.763 45.739 C 121.696 45.470,121.541 45.025,121.418 44.750 C 121.296 44.475,121.067 43.837,120.909 43.333 C 120.752 42.829,120.566 42.342,120.497 42.250 C 120.428 42.158,120.320 41.840,120.256 41.542 C 120.192 41.244,120.071 41.000,119.987 41.000 C 119.902 41.000,119.833 40.822,119.833 40.604 C 119.833 40.230,119.603 39.556,119.085 38.417 C 118.960 38.142,118.768 37.559,118.659 37.122 C 118.549 36.685,118.393 36.287,118.313 36.237 C 118.232 36.188,118.167 36.001,118.167 35.823 C 118.167 35.646,118.092 35.500,118.000 35.500 C 117.908 35.500,117.833 35.345,117.833 35.156 C 117.833 34.966,117.756 34.666,117.661 34.489 C 117.491 34.171,117.783 34.167,138.911 34.167 C 160.222 34.167,160.333 34.168,160.333 34.500 C 160.333 34.683,160.258 34.833,160.167 34.833 C 160.075 34.833,160.000 34.968,160.000 35.133 C 160.000 35.298,159.935 35.505,159.855 35.592 C 159.775 35.679,159.575 36.200,159.411 36.750 C 159.246 37.300,159.060 37.825,158.997 37.917 C 158.934 38.008,158.749 38.496,158.585 39.000 C 158.269 39.975,158.168 40.244,157.773 41.167 C 157.635 41.487,157.402 42.125,157.254 42.583 C 157.107 43.042,156.839 43.735,156.660 44.123 C 156.480 44.512,156.333 44.944,156.333 45.084 C 156.333 45.224,156.261 45.468,156.173 45.627 C 155.820 46.261,155.331 47.505,155.132 48.273 C 155.017 48.719,154.872 49.121,154.812 49.167 C 154.751 49.212,154.611 49.587,154.501 50.000 C 154.391 50.413,154.154 51.087,153.975 51.500 C 153.454 52.697,153.379 52.883,153.164 53.500 C 153.052 53.821,152.863 54.308,152.743 54.583 C 152.624 54.858,152.472 55.308,152.407 55.583 C 152.287 56.091,151.786 57.347,151.494 57.873 C 151.406 58.032,151.333 58.351,151.333 58.581 C 151.333 58.811,151.262 59.000,151.174 59.000 C 151.087 59.000,150.963 59.281,150.900 59.625 C 150.837 59.969,150.709 60.300,150.615 60.360 C 150.521 60.421,150.455 60.751,150.468 61.094 C 150.481 61.437,150.391 61.949,150.268 62.234 C 150.146 62.518,149.851 63.275,149.614 63.917 C 147.831 68.742,147.393 69.829,147.001 70.417 C 146.756 70.783,146.427 71.496,146.271 72.000 C 146.115 72.504,145.918 73.067,145.834 73.250 C 145.438 74.114,145.167 74.902,145.167 75.187 C 145.167 75.359,145.098 75.500,145.013 75.500 C 144.929 75.500,144.809 75.730,144.748 76.011 C 144.686 76.292,144.531 76.723,144.404 76.969 C 144.277 77.214,144.084 77.809,143.976 78.291 C 143.869 78.772,143.729 79.167,143.667 79.167 C 143.488 79.167,143.167 79.974,143.167 80.425 C 143.167 80.649,143.098 80.833,143.013 80.833 C 142.929 80.833,142.808 81.077,142.744 81.375 C 142.680 81.673,142.572 81.992,142.503 82.083 C 142.434 82.175,142.251 82.662,142.096 83.167 C 141.941 83.671,141.715 84.271,141.595 84.500 C 141.475 84.729,141.284 85.310,141.172 85.792 C 141.059 86.273,140.905 86.667,140.830 86.667 C 140.755 86.667,140.643 86.897,140.581 87.178 C 140.519 87.459,140.380 87.860,140.271 88.070 C 140.162 88.279,139.813 89.247,139.495 90.220 C 138.784 92.396,138.838 92.385,138.168 90.500 C 138.054 90.179,137.857 89.680,137.730 89.391 C 137.604 89.103,137.500 88.746,137.500 88.600 C 137.500 88.453,137.439 88.333,137.365 88.333 C 137.291 88.333,137.131 87.940,137.011 87.458 C 136.890 86.977,136.658 86.283,136.496 85.917 C 136.333 85.550,136.111 84.921,136.004 84.520 C 135.803 83.768,135.753 83.642,135.278 82.695 C 135.125 82.389,135.000 81.998,135.000 81.825 C 135.000 81.652,134.856 81.255,134.681 80.942 C 134.506 80.630,134.233 79.913,134.074 79.349 C 133.916 78.786,133.722 78.284,133.643 78.236 C 133.565 78.187,133.500 78.020,133.499 77.865 C 133.498 77.710,133.386 77.369,133.249 77.106 C 133.112 76.843,133.000 76.492,133.000 76.324 C 133.000 76.157,132.925 75.973,132.833 75.917 C 132.742 75.860,132.666 75.687,132.666 75.532 C 132.665 75.377,132.568 75.063,132.450 74.833 C 132.331 74.604,132.094 73.967,131.923 73.417 C 131.752 72.867,131.474 72.171,131.306 71.870 C 131.138 71.569,131.000 71.183,131.000 71.011 C 131.000 70.086,130.222 69.183,127.332 66.754 C 126.462 66.023,125.712 65.386,125.667 65.337 C 125.280 64.930,124.286 64.167,124.140 64.167 C 123.941 64.167,124.078 65.166,124.299 65.325 C 124.369 65.375,124.559 65.867,124.722 66.417 C 124.885 66.967,125.084 67.567,125.164 67.750 C 125.703 68.976,125.845 69.358,126.094 70.250 C 126.248 70.800,126.430 71.325,126.498 71.417 C 126.567 71.508,126.714 71.883,126.826 72.250 C 127.034 72.935,127.412 73.889,127.651 74.335 C 127.726 74.474,127.917 75.036,128.076 75.585 C 128.235 76.134,128.425 76.658,128.498 76.750 C 128.571 76.842,128.762 77.387,128.922 77.963 C 129.082 78.538,129.278 79.049,129.357 79.098 C 129.435 79.146,129.500 79.299,129.500 79.436 C 129.500 79.573,129.645 80.002,129.821 80.390 C 129.998 80.778,130.196 81.317,130.261 81.589 C 130.326 81.861,130.437 82.158,130.507 82.250 C 130.578 82.342,130.765 82.866,130.924 83.415 C 131.227 84.459,131.270 84.570,131.722 85.472 C 131.875 85.777,132.000 86.204,132.000 86.420 C 132.000 86.637,132.075 86.860,132.167 86.917 C 132.258 86.973,132.333 87.139,132.333 87.285 C 132.333 87.433,132.112 87.244,131.832 86.858 C 131.557 86.478,131.257 86.167,131.166 86.167 C 131.075 86.167,131.000 86.086,131.000 85.988 C 131.000 85.890,130.906 85.711,130.792 85.590 C 130.677 85.469,130.433 85.160,130.250 84.903 C 130.067 84.647,129.654 84.124,129.333 83.742 C 129.012 83.360,128.563 82.808,128.333 82.515 C 128.104 82.222,127.729 81.771,127.500 81.514 C 126.998 80.948,126.805 80.710,125.808 79.417 C 125.384 78.867,124.870 78.229,124.666 78.000 C 124.462 77.771,124.098 77.321,123.856 77.000 C 123.614 76.679,123.322 76.316,123.206 76.194 C 123.090 76.071,122.790 75.696,122.539 75.361 C 122.288 75.025,122.008 74.667,121.917 74.565 C 121.825 74.463,121.525 74.088,121.250 73.731 C 120.975 73.375,120.544 72.871,120.292 72.612 C 120.040 72.353,119.833 72.089,119.833 72.024 C 119.833 71.960,119.627 71.672,119.375 71.384 C 118.466 70.344,118.098 69.899,117.268 68.833 C 116.804 68.237,116.383 67.712,116.333 67.667 C 116.282 67.621,115.981 67.246,115.662 66.834 C 115.015 65.996,114.727 65.639,114.273 65.111 C 114.102 64.912,113.764 64.487,113.523 64.167 C 113.281 63.846,112.952 63.485,112.792 63.366 C 112.631 63.246,112.500 63.053,112.500 62.937 C 112.500 62.822,112.331 62.570,112.125 62.379 C 111.919 62.188,111.548 61.781,111.301 61.474 C 111.054 61.168,110.580 60.579,110.249 60.167 C 109.917 59.754,109.545 59.293,109.422 59.142 C 109.299 58.991,108.799 58.353,108.311 57.725 C 107.823 57.097,107.382 56.546,107.331 56.500 C 107.280 56.454,106.760 55.817,106.175 55.083 C 105.590 54.350,104.955 53.584,104.764 53.382 C 104.573 53.179,104.192 52.707,103.917 52.332 C 103.642 51.957,103.210 51.426,102.958 51.153 C 102.706 50.879,102.500 50.611,102.500 50.556 C 102.500 50.461,101.757 49.563,100.909 48.636 C 100.684 48.389,100.500 48.144,100.500 48.089 C 100.500 48.035,99.929 47.299,99.232 46.454 C 98.535 45.608,97.840 44.767,97.689 44.583 C 97.538 44.400,97.048 43.781,96.599 43.208 C 96.151 42.635,95.725 42.167,95.653 42.167 C 95.581 42.167,95.479 42.035,95.425 41.875 C 95.371 41.715,95.085 41.309,94.789 40.974 C 94.259 40.375,93.939 39.977,92.887 38.607 C 92.252 37.780,91.553 36.940,91.042 36.389 C 90.835 36.167,90.667 35.919,90.667 35.838 C 90.667 35.757,90.479 35.543,90.250 35.363 C 90.021 35.183,89.833 34.977,89.833 34.906 C 89.833 34.835,89.709 34.639,89.558 34.471 C 89.291 34.177,89.467 34.167,94.881 34.167 C 98.434 34.167,100.518 34.106,100.583 34.000 C 100.644 33.902,101.610 33.833,102.917 33.833 C 104.224 33.833,105.190 33.902,105.250 34.000 " stroke="none" fill="#040404" fill-rule="evenodd"></path></g></svg>